Light.ufo
<glyph name="hsmallmod" format="2">
  <advance width="500" height="1000"/>
  <unicode hex="02B0"/>
  <outline>
    <contour>
      <point x="349" y="329" type="qcurve"/>
      <point x="334" y="329"/>
      <point x="312" y="338"/>
      <point x="312" y="349" type="qcurve"/>
      <point x="312" y="363" type="line"/>
      <point x="313" y="398"/>
      <point x="313" y="487" type="qcurve"/>
      <point x="313" y="515"/>
      <point x="298" y="546"/>
      <point x="278" y="546" type="qcurve"/>
      <point x="241" y="546"/>
      <point x="190" y="492"/>
      <point x="189" y="422" type="qcurve"/>
      <point x="189" y="371"/>
      <point x="190" y="341" type="qcurve"/>
      <point x="190" y="329"/>
      <point x="180" y="329" type="qcurve"/>
      <point x="165" y="329"/>
      <point x="143" y="338"/>
      <point x="143" y="349" type="qcurve"/>
      <point x="144" y="398" type="line"/>
      <point x="144" y="636" type="line"/>
      <point x="142" y="689" type="line"/>
      <point x="142" y="700"/>
      <point x="153" y="700" type="qcurve"/>
      <point x="167" y="700"/>
      <point x="190" y="691"/>
      <point x="190" y="680" type="qcurve"/>
      <point x="189" y="537" type="line"/>
      <point x="199" y="562"/>
      <point x="248" y="589"/>
      <point x="276" y="589" type="qcurve"/>
      <point x="358" y="589"/>
      <point x="358" y="489" type="qcurve"/>
      <point x="358" y="393"/>
      <point x="359" y="340" type="qcurve"/>
      <point x="359" y="329"/>
    </contour>
  </outline>
</glyph>
<glyph name="jsmallmod" format="2">
  <advance width="500" height="1000"/>
  <unicode hex="02B2"/>
  <outline>
    <contour>
      <point x="303" y="630" type="qcurve"/>
      <point x="291" y="630"/>
      <point x="274" y="654"/>
      <point x="274" y="665" type="qcurve"/>
      <point x="274" y="676"/>
      <point x="288" y="694"/>
      <point x="303" y="694" type="qcurve"/>
      <point x="315" y="694"/>
      <point x="332" y="669"/>
      <point x="332" y="658" type="qcurve"/>
      <point x="332" y="647"/>
      <point x="317" y="630"/>
    </contour>
    <contour>
      <point x="226" y="247" type="qcurve"/>
      <point x="169" y="247"/>
      <point x="147" y="301" type="qcurve"/>
      <point x="147" y="309"/>
      <point x="163" y="331"/>
      <point x="173" y="331" type="qcurve"/>
      <point x="185" y="331"/>
      <point x="187" y="321" type="qcurve"/>
      <point x="194" y="302"/>
      <point x="210" y="288"/>
      <point x="226" y="288" type="qcurve"/>
      <point x="259" y="288"/>
      <point x="276" y="322" type="qcurve"/>
      <point x="285" y="340"/>
      <point x="285" y="365" type="qcurve"/>
      <point x="285" y="547" type="line"/>
      <point x="268" y="546"/>
      <point x="221" y="546"/>
      <point x="216" y="545" type="qcurve"/>
      <point x="203" y="545"/>
      <point x="194" y="569"/>
      <point x="194" y="577" type="qcurve"/>
      <point x="194" y="590"/>
      <point x="207" y="590" type="qcurve"/>
      <point x="221" y="587"/>
      <point x="240" y="587" type="qcurve"/>
      <point x="291" y="587"/>
      <point x="305" y="592" type="qcurve"/>
      <point x="321" y="592"/>
      <point x="327" y="574" type="qcurve"/>
      <point x="331" y="568"/>
      <point x="331" y="564" type="qcurve"/>
      <point x="331" y="560"/>
      <point x="328" y="553"/>
      <point x="328" y="548" type="qcurve"/>
      <point x="327" y="365" type="line"/>
      <point x="327" y="328"/>
      <point x="301" y="276"/>
      <point x="255" y="247"/>
    </contour>
  </outline>
</glyph>
<glyph name="rsmallmod" format="2">
  <advance width="500" height="1000"/>
  <unicode hex="02B3"/>
  <outline>
    <contour>
      <point x="216" y="330" type="qcurve"/>
      <point x="206" y="330"/>
      <point x="184" y="338"/>
      <point x="184" y="349" type="qcurve"/>
      <point x="185" y="393" type="line"/>
      <point x="185" y="523" type="line"/>
      <point x="183" y="577" type="line"/>
      <point x="183" y="587"/>
      <point x="197" y="587" type="qcurve"/>
      <point x="207" y="587"/>
      <point x="230" y="578"/>
      <point x="230" y="555" type="qcurve"/>
      <point x="255" y="588"/>
      <point x="291" y="588" type="qcurve"/>
      <point x="312" y="588"/>
      <point x="339" y="578"/>
      <point x="359" y="562"/>
      <point x="359" y="552" type="qcurve"/>
      <point x="359" y="544"/>
      <point x="344" y="522"/>
      <point x="337" y="522" type="qcurve"/>
      <point x="329" y="522"/>
      <point x="324" y="529" type="qcurve"/>
      <point x="321" y="537"/>
      <point x="301" y="545"/>
      <point x="295" y="545" type="qcurve"/>
      <point x="275" y="545"/>
      <point x="259" y="533" type="qcurve"/>
      <point x="234" y="516"/>
      <point x="230" y="473" type="qcurve"/>
      <point x="228" y="454"/>
      <point x="228" y="393" type="qcurve"/>
      <point x="230" y="340" type="line"/>
      <point x="230" y="330"/>
    </contour>
  </outline>
</glyph>
<glyph name="lsmallmod" format="2">
  <advance width="500" height="1000"/>
  <unicode hex="02E1"/>
  <outline>
    <contour>
      <point x="295" y="323" type="qcurve"/>
      <point x="260" y="323"/>
      <point x="230" y="365"/>
      <point x="230" y="410" type="qcurve"/>
      <point x="229" y="679" type="line"/>
      <point x="199" y="675"/>
      <point x="163" y="675"/>
      <point x="154" y="674" type="qcurve"/>
      <point x="147" y="674"/>
      <point x="135" y="698"/>
      <point x="135" y="708" type="qcurve"/>
      <point x="135" y="717"/>
      <point x="139" y="717" type="qcurve"/>
      <point x="165" y="713"/>
      <point x="173" y="713" type="qcurve"/>
      <point x="223" y="713"/>
      <point x="251" y="720" type="qcurve"/>
      <point x="262" y="720"/>
      <point x="271" y="703" type="qcurve"/>
      <point x="275" y="696"/>
      <point x="275" y="690" type="qcurve"/>
      <point x="275" y="685"/>
      <point x="271" y="676"/>
      <point x="271" y="408" type="qcurve"/>
      <point x="271" y="381"/>
      <point x="282" y="362"/>
      <point x="302" y="362" type="qcurve"/>
      <point x="337" y="362"/>
      <point x="380" y="391" type="qcurve"/>
      <point x="392" y="400"/>
      <point x="397" y="400" type="qcurve"/>
      <point x="399" y="400"/>
      <point x="399" y="395" type="qcurve"/>
      <point x="399" y="389"/>
      <point x="382" y="366"/>
      <point x="352" y="340"/>
      <point x="312" y="323"/>
    </contour>
  </outline>
</glyph>
<glyph name="ssmallmod" format="2">
  <advance width="500" height="1000"/>
  <unicode hex="02E2"/>
  <outline>
    <contour>
      <point x="253" y="326" type="qcurve"/>
      <point x="223" y="326"/>
      <point x="182" y="340"/>
      <point x="158" y="360"/>
      <point x="146" y="379"/>
      <point x="146" y="387" type="qcurve"/>
      <point x="146" y="393"/>
      <point x="164" y="413"/>
      <point x="173" y="413" type="qcurve"/>
      <point x="180" y="413"/>
      <point x="187" y="397"/>
      <point x="193" y="387" type="qcurve"/>
      <point x="209" y="367"/>
      <point x="253" y="367" type="qcurve"/>
      <point x="281" y="367"/>
      <point x="310" y="390"/>
      <point x="310" y="405" type="qcurve"/>
      <point x="310" y="419"/>
      <point x="294" y="437"/>
      <point x="268" y="444" type="qcurve"/>
      <point x="218" y="456" type="line"/>
      <point x="158" y="470"/>
      <point x="158" y="519" type="qcurve"/>
      <point x="158" y="540"/>
      <point x="172" y="557" type="qcurve"/>
      <point x="200" y="590"/>
      <point x="255" y="590" type="qcurve"/>
      <point x="309" y="590"/>
      <point x="340" y="556" type="qcurve"/>
      <point x="343" y="554"/>
      <point x="343" y="547" type="qcurve"/>
      <point x="343" y="540"/>
      <point x="329" y="519"/>
      <point x="322" y="519" type="qcurve"/>
      <point x="315" y="519"/>
      <point x="308" y="528" type="qcurve"/>
      <point x="294" y="550"/>
      <point x="256" y="550" type="qcurve"/>
      <point x="228" y="550"/>
      <point x="203" y="530"/>
      <point x="203" y="520" type="qcurve"/>
      <point x="203" y="510"/>
      <point x="213" y="500"/>
      <point x="232" y="494" type="qcurve"/>
      <point x="280" y="483" type="line"/>
      <point x="314" y="475"/>
      <point x="355" y="439"/>
      <point x="355" y="405" type="qcurve"/>
      <point x="355" y="383"/>
      <point x="329" y="347"/>
      <point x="283" y="326"/>
    </contour>
  </outline>
</glyph>
<glyph name="Dmod" format="2">
  <advance width="500" height="1000"/>
  <unicode hex="1D30"/>
  <outline>
    <contour>
      <point x="162" y="365" type="line"/>
      <point x="229" y="366"/>
      <point x="321" y="407"/>
      <point x="365" y="476"/>
      <point x="365" y="514" type="qcurve"/>
      <point x="365" y="583"/>
      <point x="274" y="660"/>
      <point x="218" y="660" type="qcurve"/>
      <point x="186" y="660"/>
      <point x="162" y="653" type="qcurve"/>
    </contour>
    <contour>
      <point x="160" y="331" type="qcurve"/>
      <point x="89" y="331"/>
      <point x="89" y="347" type="qcurve"/>
      <point x="89" y="362"/>
      <point x="117" y="362" type="qcurve"/>
      <point x="117" y="649" type="line"/>
      <point x="112" y="649"/>
      <point x="97" y="667"/>
      <point x="97" y="674" type="qcurve"/>
      <point x="97" y="697"/>
      <point x="220" y="701" type="qcurve"/>
      <point x="299" y="701"/>
      <point x="410" y="600"/>
      <point x="410" y="520" type="qcurve"/>
      <point x="410" y="440"/>
      <point x="362" y="391" type="qcurve"/>
      <point x="319" y="350"/>
      <point x="257" y="339" type="qcurve"/>
      <point x="217" y="332"/>
    </contour>
  </outline>
</glyph>
<glyph name="Emod" format="2">
  <advance width="500" height="1000"/>
  <unicode hex="1D31"/>
  <outline>
    <contour>
      <point x="161" y="330" type="qcurve"/>
      <point x="151" y="330"/>
      <point x="135" y="350"/>
      <point x="135" y="359" type="qcurve"/>
      <point x="139" y="383" type="line"/>
      <point x="139" y="509" type="line"/>
      <point x="135" y="511"/>
      <point x="125" y="530"/>
      <point x="125" y="536" type="qcurve"/>
      <point x="125" y="546"/>
      <point x="139" y="547" type="qcurve"/>
      <point x="139" y="657" type="line"/>
      <point x="137" y="682" type="line"/>
      <point x="137" y="694"/>
      <point x="149" y="694" type="qcurve"/>
      <point x="157" y="694"/>
      <point x="175" y="688" type="qcurve"/>
      <point x="310" y="697" type="line"/>
      <point x="353" y="701" type="line"/>
      <point x="362" y="701"/>
      <point x="374" y="680"/>
      <point x="374" y="671" type="qcurve"/>
      <point x="374" y="658"/>
      <point x="363" y="658" type="qcurve"/>
      <point x="326" y="658"/>
      <point x="183" y="649" type="qcurve"/>
      <point x="183" y="547" type="line"/>
      <point x="282" y="553" type="line"/>
      <point x="295" y="554"/>
      <point x="319" y="557"/>
      <point x="326" y="557" type="qcurve"/>
      <point x="335" y="557"/>
      <point x="347" y="536"/>
      <point x="347" y="526" type="qcurve"/>
      <point x="347" y="513"/>
      <point x="335" y="513" type="qcurve"/>
      <point x="284" y="513"/>
      <point x="183" y="508" type="qcurve"/>
      <point x="183" y="374" type="line"/>
      <point x="369" y="378" type="line"/>
      <point x="378" y="378"/>
      <point x="390" y="357"/>
      <point x="390" y="347" type="qcurve"/>
      <point x="390" y="334"/>
      <point x="379" y="334" type="qcurve"/>
      <point x="335" y="335" type="line"/>
      <point x="188" y="333" type="line"/>
      <point x="180" y="333"/>
      <point x="169" y="330"/>
    </contour>
  </outline>
</glyph>
<glyph name="Gmod" format="2">
  <advance width="500" height="1000"/>
  <unicode hex="1D33"/>
  <outline>
    <contour>
      <point x="248" y="326" type="qcurve"/>
      <point x="146" y="326"/>
      <point x="106" y="394" type="qcurve"/>
      <point x="85" y="429"/>
      <point x="85" y="480" type="qcurve"/>
      <point x="85" y="574"/>
      <point x="188" y="701"/>
      <point x="268" y="701" type="qcurve"/>
      <point x="348" y="701"/>
      <point x="382" y="658" type="qcurve"/>
      <point x="386" y="654"/>
      <point x="386" y="646" type="qcurve"/>
      <point x="386" y="638"/>
      <point x="371" y="619"/>
      <point x="362" y="619" type="qcurve"/>
      <point x="355" y="619"/>
      <point x="351" y="625" type="qcurve"/>
      <point x="328" y="660"/>
      <point x="273" y="660" type="qcurve"/>
      <point x="237" y="660"/>
      <point x="189" y="634"/>
      <point x="170" y="610" type="qcurve"/>
      <point x="130" y="560"/>
      <point x="130" y="487" type="qcurve"/>
      <point x="130" y="368"/>
      <point x="245" y="368" type="qcurve"/>
      <point x="278" y="368"/>
      <point x="333" y="399"/>
      <point x="349" y="428" type="qcurve"/>
      <point x="364" y="453"/>
      <point x="366" y="490" type="qcurve"/>
      <point x="290" y="485"/>
      <point x="275" y="482" type="qcurve"/>
      <point x="273" y="482" type="line"/>
      <point x="263" y="482"/>
      <point x="249" y="504"/>
      <point x="249" y="513" type="qcurve"/>
      <point x="249" y="525"/>
      <point x="260" y="525" type="qcurve"/>
      <point x="321" y="525"/>
      <point x="380" y="532" type="qcurve"/>
      <point x="387" y="532"/>
      <point x="394" y="526" type="qcurve"/>
      <point x="412" y="513"/>
      <point x="412" y="503" type="qcurve"/>
      <point x="412" y="497"/>
      <point x="407" y="492"/>
      <point x="407" y="489" type="qcurve"/>
      <point x="407" y="388" type="line"/>
      <point x="407" y="384"/>
      <point x="408" y="366"/>
      <point x="408" y="348"/>
      <point x="408" y="343" type="qcurve"/>
      <point x="408" y="332"/>
      <point x="393" y="332" type="qcurve"/>
      <point x="382" y="332"/>
      <point x="361" y="340"/>
      <point x="361" y="349" type="qcurve"/>
      <point x="364" y="391" type="line"/>
      <point x="350" y="353"/>
      <point x="295" y="335" type="qcurve"/>
      <point x="271" y="326"/>
    </contour>
  </outline>
</glyph>
<glyph name="Hmod" format="2">
  <advance width="500" height="1000"/>
  <unicode hex="1D34"/>
  <outline>
    <contour>
      <point x="155" y="329" type="qcurve"/>
      <point x="145" y="329"/>
      <point x="122" y="338"/>
      <point x="122" y="348" type="qcurve"/>
      <point x="123" y="393" type="line"/>
      <point x="123" y="504" type="line"/>
      <point x="114" y="507"/>
      <point x="109" y="515" type="qcurve"/>
      <point x="103" y="527"/>
      <point x="103" y="536" type="qcurve"/>
      <point x="103" y="549"/>
      <point x="123" y="549" type="qcurve"/>
      <point x="123" y="634"/>
      <point x="122" y="687" type="qcurve"/>
      <point x="122" y="697"/>
      <point x="136" y="697" type="qcurve"/>
      <point x="147" y="697"/>
      <point x="169" y="689"/>
      <point x="169" y="678" type="qcurve"/>
      <point x="168" y="634" type="line"/>
      <point x="168" y="549" type="line"/>
      <point x="341" y="559" type="line"/>
      <point x="340" y="687" type="line"/>
      <point x="340" y="697"/>
      <point x="354" y="697" type="qcurve"/>
      <point x="365" y="697"/>
      <point x="387" y="689"/>
      <point x="387" y="678" type="qcurve"/>
      <point x="386" y="634" type="line"/>
      <point x="386" y="393" type="line"/>
      <point x="388" y="340" type="line"/>
      <point x="388" y="330"/>
      <point x="373" y="330" type="qcurve"/>
      <point x="363" y="330"/>
      <point x="340" y="338"/>
      <point x="340" y="349" type="qcurve"/>
      <point x="341" y="393" type="line"/>
      <point x="341" y="519" type="line"/>
      <point x="168" y="510" type="line"/>
      <point x="168" y="392" type="line"/>
      <point x="170" y="339" type="line"/>
      <point x="170" y="329"/>
    </contour>
  </outline>
</glyph>
<glyph name="Imod" format="2">
  <advance width="500" height="1000"/>
  <unicode hex="1D35"/>
  <outline>
    <contour>
      <point x="333" y="332" type="qcurve"/>
      <point x="316" y="335"/>
      <point x="278" y="335" type="qcurve"/>
      <point x="211" y="335"/>
      <point x="179" y="332" type="qcurve"/>
      <point x="168" y="332"/>
      <point x="157" y="354"/>
      <point x="157" y="362" type="qcurve"/>
      <point x="157" y="376"/>
      <point x="170" y="376" type="qcurve"/>
      <point x="226" y="376" type="line"/>
      <point x="227" y="649" type="line"/>
      <point x="205" y="648"/>
      <point x="187" y="645" type="qcurve"/>
      <point x="175" y="645"/>
      <point x="165" y="667"/>
      <point x="165" y="675" type="qcurve"/>
      <point x="165" y="689"/>
      <point x="177" y="689" type="qcurve"/>
      <point x="209" y="688" type="line"/>
      <point x="257" y="688"/>
      <point x="316" y="695" type="qcurve"/>
      <point x="326" y="695"/>
      <point x="336" y="672"/>
      <point x="336" y="664" type="qcurve"/>
      <point x="336" y="650"/>
      <point x="324" y="650" type="qcurve"/>
      <point x="288" y="652" type="line"/>
      <point x="272" y="651" type="line"/>
      <point x="272" y="377" type="line"/>
      <point x="324" y="377" type="line"/>
      <point x="335" y="377"/>
      <point x="345" y="354"/>
      <point x="345" y="346" type="qcurve"/>
      <point x="345" y="332"/>
    </contour>
  </outline>
</glyph>
<glyph name="Jmod" format="2">
  <advance width="500" height="1000"/>
  <unicode hex="1D36"/>
  <outline>
    <contour>
      <point x="230" y="326" type="qcurve"/>
      <point x="205" y="326"/>
      <point x="166" y="345"/>
      <point x="142" y="371"/>
      <point x="130" y="396"/>
      <point x="130" y="402" type="qcurve"/>
      <point x="130" y="409"/>
      <point x="141" y="423"/>
      <point x="156" y="431"/>
      <point x="162" y="431" type="qcurve"/>
      <point x="171" y="431"/>
      <point x="173" y="422" type="qcurve"/>
      <point x="185" y="369"/>
      <point x="229" y="369" type="qcurve"/>
      <point x="279" y="369"/>
      <point x="279" y="430" type="qcurve"/>
      <point x="279" y="634"/>
      <point x="277" y="687" type="qcurve"/>
      <point x="277" y="697"/>
      <point x="292" y="697" type="qcurve"/>
      <point x="302" y="697"/>
      <point x="325" y="688"/>
      <point x="325" y="678" type="qcurve"/>
      <point x="324" y="634" type="line"/>
      <point x="324" y="428" type="line"/>
      <point x="324" y="326"/>
    </contour>
  </outline>
</glyph>
<glyph name="Omod" format="2">
  <advance width="500" height="1000"/>
  <unicode hex="1D3C"/>
  <outline>
    <contour>
      <point x="242" y="368" type="qcurve"/>
      <point x="312" y="368"/>
      <point x="372" y="458"/>
      <point x="372" y="525" type="qcurve"/>
      <point x="372" y="580"/>
      <point x="316" y="661"/>
      <point x="264" y="661" type="qcurve"/>
      <point x="244" y="661"/>
      <point x="196" y="641"/>
      <point x="156" y="604"/>
      <point x="131" y="547"/>
      <point x="131" y="509" type="qcurve"/>
      <point x="131" y="470"/>
      <point x="155" y="406"/>
      <point x="204" y="368"/>
    </contour>
    <contour>
      <point x="248" y="326" type="qcurve"/>
      <point x="193" y="326"/>
      <point x="121" y="373"/>
      <point x="86" y="456"/>
      <point x="86" y="500" type="qcurve"/>
      <point x="86" y="542"/>
      <point x="104" y="602"/>
      <point x="128" y="647"/>
      <point x="154" y="674"/>
      <point x="163" y="674" type="qcurve"/>
      <point x="173" y="674"/>
      <point x="175" y="669" type="qcurve"/>
      <point x="212" y="701"/>
      <point x="263" y="701" type="qcurve"/>
      <point x="313" y="701"/>
      <point x="381" y="655"/>
      <point x="417" y="573"/>
      <point x="417" y="527" type="qcurve"/>
      <point x="417" y="439"/>
      <point x="377" y="384" type="qcurve"/>
      <point x="332" y="326"/>
    </contour>
  </outline>
</glyph>
<glyph name="Pmod" format="2">
  <advance width="500" height="1000"/>
  <unicode hex="1D3E"/>
  <outline>
    <contour>
      <point x="188" y="528" type="line"/>
      <point x="273" y="534"/>
      <point x="342" y="580"/>
      <point x="342" y="610" type="qcurve"/>
      <point x="342" y="659"/>
      <point x="254" y="659" type="qcurve"/>
      <point x="219" y="659"/>
      <point x="188" y="650" type="qcurve"/>
    </contour>
    <contour>
      <point x="175" y="329" type="qcurve"/>
      <point x="165" y="329"/>
      <point x="142" y="338"/>
      <point x="142" y="348" type="qcurve"/>
      <point x="143" y="398" type="line"/>
      <point x="143" y="644" type="line"/>
      <point x="137" y="644"/>
      <point x="120" y="665"/>
      <point x="120" y="673" type="qcurve"/>
      <point x="120" y="682"/>
      <point x="129" y="684" type="qcurve"/>
      <point x="212" y="700"/>
      <point x="242" y="700"/>
      <point x="255" y="700" type="qcurve"/>
      <point x="388" y="700"/>
      <point x="388" y="611" type="qcurve"/>
      <point x="388" y="567"/>
      <point x="359" y="540" type="qcurve"/>
      <point x="311" y="495"/>
      <point x="203" y="495" type="qcurve"/>
      <point x="195" y="495"/>
      <point x="188" y="493" type="qcurve"/>
      <point x="188" y="397" type="line"/>
      <point x="190" y="339" type="line"/>
      <point x="190" y="329"/>
    </contour>
  </outline>
</glyph>
<glyph name="Tmod" format="2">
  <advance width="500" height="1000"/>
  <unicode hex="1D40"/>
  <outline>
    <contour>
      <point x="260" y="329" type="qcurve"/>
      <point x="249" y="329"/>
      <point x="226" y="339"/>
      <point x="226" y="349" type="qcurve"/>
      <point x="227" y="393" type="line"/>
      <point x="228" y="651" type="line"/>
      <point x="170" y="647" type="line"/>
      <point x="157" y="647"/>
      <point x="134" y="643"/>
      <point x="128" y="643" type="qcurve"/>
      <point x="118" y="643"/>
      <point x="106" y="665"/>
      <point x="106" y="674" type="qcurve"/>
      <point x="106" y="687"/>
      <point x="118" y="687" type="qcurve"/>
      <point x="153" y="686" type="line"/>
      <point x="330" y="696" type="line"/>
      <point x="373" y="700" type="line"/>
      <point x="382" y="700"/>
      <point x="393" y="678"/>
      <point x="393" y="669" type="qcurve"/>
      <point x="393" y="655"/>
      <point x="382" y="655" type="qcurve"/>
      <point x="342" y="657" type="line"/>
      <point x="273" y="653" type="line"/>
      <point x="273" y="393" type="line"/>
      <point x="275" y="340" type="line"/>
      <point x="275" y="329"/>
    </contour>
  </outline>
</glyph>
<glyph name="asmallmod" format="2">
  <advance width="500" height="1000"/>
  <unicode hex="1D43"/>
  <outline>
    <contour>
      <point x="215" y="326" type="qcurve"/>
      <point x="175" y="326"/>
      <point x="128" y="379"/>
      <point x="128" y="428" type="qcurve"/>
      <point x="128" y="493"/>
      <point x="169" y="542" type="qcurve"/>
      <point x="186" y="564"/>
      <point x="233" y="590"/>
      <point x="258" y="590" type="qcurve"/>
      <point x="289" y="590"/>
      <point x="306" y="563" type="qcurve"/>
      <point x="308" y="589"/>
      <point x="318" y="589" type="qcurve"/>
      <point x="332" y="589"/>
      <point x="357" y="580"/>
      <point x="357" y="570" type="qcurve"/>
      <point x="357" y="568" type="line"/>
      <point x="350" y="524"/>
      <point x="350" y="438" type="qcurve"/>
      <point x="350" y="388"/>
      <point x="367" y="361" type="qcurve"/>
      <point x="369" y="358"/>
      <point x="369" y="353" type="qcurve"/>
      <point x="369" y="348"/>
      <point x="352" y="328"/>
      <point x="341" y="328" type="qcurve"/>
      <point x="315" y="328"/>
      <point x="309" y="380" type="qcurve"/>
      <point x="299" y="360"/>
      <point x="245" y="326"/>
    </contour>
    <contour>
      <point x="216" y="368" type="qcurve"/>
      <point x="236" y="368"/>
      <point x="256" y="383" type="qcurve"/>
      <point x="306" y="419"/>
      <point x="306" y="520" type="qcurve"/>
      <point x="299" y="520"/>
      <point x="295" y="525" type="qcurve"/>
      <point x="281" y="549"/>
      <point x="254" y="549" type="qcurve"/>
      <point x="228" y="549"/>
      <point x="174" y="481"/>
      <point x="174" y="431" type="qcurve"/>
      <point x="174" y="368"/>
    </contour>
  </outline>
</glyph>
<glyph name="dsmallmod" format="2">
  <advance width="500" height="1000"/>
  <unicode hex="1D48"/>
  <outline>
    <contour>
      <point x="213" y="366" type="qcurve"/>
      <point x="247" y="366"/>
      <point x="310" y="434"/>
      <point x="310" y="478" type="qcurve"/>
      <point x="310" y="522" type="line"/>
      <point x="303" y="525"/>
      <point x="301" y="528" type="qcurve"/>
      <point x="287" y="549"/>
      <point x="256" y="549" type="qcurve"/>
      <point x="243" y="549"/>
      <point x="212" y="530"/>
      <point x="199" y="513" type="qcurve"/>
      <point x="173" y="477"/>
      <point x="173" y="438" type="qcurve"/>
      <point x="173" y="399"/>
      <point x="197" y="366"/>
    </contour>
    <contour>
      <point x="213" y="326" type="qcurve"/>
      <point x="177" y="326"/>
      <point x="129" y="382"/>
      <point x="129" y="433" type="qcurve"/>
      <point x="129" y="494"/>
      <point x="207" y="588"/>
      <point x="259" y="588" type="qcurve"/>
      <point x="279" y="588"/>
      <point x="295" y="579" type="qcurve"/>
      <point x="300" y="577"/>
      <point x="310" y="558" type="qcurve"/>
      <point x="310" y="636" type="line"/>
      <point x="308" y="689" type="line"/>
      <point x="308" y="699"/>
      <point x="322" y="699" type="qcurve"/>
      <point x="332" y="699"/>
      <point x="354" y="691"/>
      <point x="354" y="680" type="qcurve"/>
      <point x="353" y="636" type="line"/>
      <point x="353" y="432" type="line"/>
      <point x="353" y="411"/>
      <point x="361" y="371"/>
      <point x="369" y="361" type="qcurve"/>
      <point x="371" y="358"/>
      <point x="371" y="354" type="qcurve"/>
      <point x="371" y="348"/>
      <point x="355" y="329"/>
      <point x="345" y="329" type="qcurve"/>
      <point x="330" y="329"/>
      <point x="321" y="356" type="qcurve"/>
      <point x="312" y="377" type="line"/>
      <point x="268" y="326"/>
    </contour>
  </outline>
</glyph>
<glyph name="esmallmod" format="2">
  <advance width="500" height="1000"/>
  <unicode hex="1D49"/>
  <outline>
    <contour>
      <point x="190" y="473" type="qcurve"/>
      <point x="250" y="473"/>
      <point x="293" y="485" type="qcurve"/>
      <point x="310" y="491"/>
      <point x="318" y="500"/>
      <point x="318" y="511" type="qcurve"/>
      <point x="318" y="549"/>
      <point x="274" y="549" type="qcurve"/>
      <point x="242" y="549"/>
      <point x="194" y="494"/>
    </contour>
    <contour>
      <point x="237" y="326" type="qcurve"/>
      <point x="209" y="326"/>
      <point x="165" y="353"/>
      <point x="140" y="404"/>
      <point x="140" y="438" type="qcurve"/>
      <point x="140" y="443" type="line"/>
      <point x="129" y="451"/>
      <point x="129" y="461" type="qcurve"/>
      <point x="129" y="473"/>
      <point x="144" y="474" type="qcurve"/>
      <point x="151" y="511"/>
      <point x="225" y="590"/>
      <point x="274" y="590" type="qcurve"/>
      <point x="307" y="590"/>
      <point x="326" y="578" type="qcurve"/>
      <point x="363" y="557"/>
      <point x="363" y="511" type="qcurve"/>
      <point x="363" y="493"/>
      <point x="357" y="470"/>
      <point x="334" y="456"/>
      <point x="311" y="449" type="qcurve"/>
      <point x="261" y="433"/>
      <point x="184" y="433" type="qcurve"/>
      <point x="185" y="401"/>
      <point x="215" y="367"/>
      <point x="240" y="367" type="qcurve"/>
      <point x="300" y="367"/>
      <point x="338" y="408" type="qcurve"/>
      <point x="345" y="417"/>
      <point x="357" y="417" type="qcurve"/>
      <point x="365" y="417"/>
      <point x="365" y="410" type="qcurve"/>
      <point x="365" y="399"/>
      <point x="348" y="373"/>
      <point x="333" y="360" type="qcurve"/>
      <point x="295" y="326"/>
    </contour>
  </outline>
</glyph>
<glyph name="ksmallmod" format="2">
  <advance width="500" height="1000"/>
  <unicode hex="1D4F"/>
  <outline>
    <contour>
      <point x="343" y="328" type="qcurve"/>
      <point x="329" y="328"/>
      <point x="268" y="395" type="qcurve"/>
      <point x="228" y="440"/>
      <point x="201" y="467" type="qcurve"/>
      <point x="201" y="394" type="line"/>
      <point x="203" y="341" type="line"/>
      <point x="203" y="330"/>
      <point x="193" y="330" type="qcurve"/>
      <point x="178" y="330"/>
      <point x="155" y="339"/>
      <point x="155" y="350" type="qcurve"/>
      <point x="156" y="394" type="line"/>
      <point x="156" y="636" type="line"/>
      <point x="154" y="689" type="line"/>
      <point x="154" y="700"/>
      <point x="165" y="700" type="qcurve"/>
      <point x="179" y="700"/>
      <point x="203" y="691"/>
      <point x="203" y="680" type="qcurve"/>
      <point x="201" y="636" type="line"/>
      <point x="201" y="509" type="line"/>
      <point x="292" y="573"/>
      <point x="304" y="585" type="qcurve"/>
      <point x="307" y="589"/>
      <point x="315" y="589" type="qcurve"/>
      <point x="323" y="589"/>
      <point x="331" y="586" type="qcurve"/>
      <point x="353" y="578"/>
      <point x="353" y="567" type="qcurve"/>
      <point x="353" y="560"/>
      <point x="316" y="539"/>
      <point x="310" y="535" type="qcurve"/>
      <point x="240" y="487" type="line"/>
      <point x="344" y="379" type="line"/>
      <point x="358" y="367"/>
      <point x="377" y="359"/>
      <point x="377" y="353" type="qcurve"/>
      <point x="377" y="345"/>
      <point x="370" y="340" type="qcurve"/>
      <point x="356" y="328"/>
    </contour>
  </outline>
</glyph>
<glyph name="msmallmod" format="2">
  <advance width="500" height="1000"/>
  <unicode hex="1D50"/>
  <outline>
    <contour>
      <point x="383" y="329" type="qcurve"/>
      <point x="369" y="329"/>
      <point x="348" y="339"/>
      <point x="348" y="349" type="qcurve"/>
      <point x="349" y="393" type="line"/>
      <point x="349" y="487" type="line"/>
      <point x="349" y="516"/>
      <point x="334" y="548"/>
      <point x="321" y="548" type="qcurve"/>
      <point x="311" y="548"/>
      <point x="288" y="528"/>
      <point x="271" y="494"/>
      <point x="271" y="475" type="qcurve"/>
      <point x="271" y="393" type="line"/>
      <point x="273" y="340" type="line"/>
      <point x="273" y="329"/>
      <point x="263" y="329" type="qcurve"/>
      <point x="248" y="329"/>
      <point x="227" y="339"/>
      <point x="227" y="349" type="qcurve"/>
      <point x="229" y="393" type="line"/>
      <point x="229" y="487" type="line"/>
      <point x="229" y="548"/>
      <point x="205" y="548" type="qcurve"/>
      <point x="187" y="548"/>
      <point x="173" y="528" type="qcurve"/>
      <point x="154" y="501"/>
      <point x="152" y="445" type="qcurve"/>
      <point x="151" y="393" type="line"/>
      <point x="153" y="340" type="line"/>
      <point x="153" y="329"/>
      <point x="143" y="329" type="qcurve"/>
      <point x="128" y="329"/>
      <point x="107" y="339"/>
      <point x="107" y="349" type="qcurve"/>
      <point x="108" y="393" type="line"/>
      <point x="108" y="519" type="line"/>
      <point x="107" y="577" type="line"/>
      <point x="107" y="588"/>
      <point x="118" y="588" type="qcurve"/>
      <point x="132" y="588"/>
      <point x="153" y="578"/>
      <point x="153" y="563"/>
      <point x="153" y="540" type="qcurve"/>
      <point x="184" y="590"/>
      <point x="208" y="590" type="qcurve"/>
      <point x="233" y="590"/>
      <point x="265" y="553" type="qcurve"/>
      <point x="265" y="564"/>
      <point x="302" y="590"/>
      <point x="325" y="590" type="qcurve"/>
      <point x="348" y="590"/>
      <point x="379" y="559"/>
      <point x="392" y="513"/>
      <point x="392" y="489" type="qcurve"/>
      <point x="392" y="393" type="line"/>
      <point x="393" y="340" type="line"/>
      <point x="393" y="329"/>
    </contour>
  </outline>
</glyph>
<glyph name="osmallmod" format="2">
  <advance width="500" height="1000"/>
  <unicode hex="1D52"/>
  <outline>
    <contour>
      <point x="244" y="368" type="qcurve"/>
      <point x="267" y="368"/>
      <point x="302" y="393"/>
      <point x="324" y="436"/>
      <point x="324" y="469" type="qcurve"/>
      <point x="324" y="503"/>
      <point x="294" y="548"/>
      <point x="260" y="548" type="qcurve"/>
      <point x="227" y="548"/>
      <point x="178" y="484"/>
      <point x="178" y="445" type="qcurve"/>
      <point x="178" y="406"/>
      <point x="212" y="368"/>
    </contour>
    <contour>
      <point x="247" y="326" type="qcurve"/>
      <point x="191" y="326"/>
      <point x="132" y="390"/>
      <point x="132" y="444" type="qcurve"/>
      <point x="132" y="486"/>
      <point x="157" y="531" type="qcurve"/>
      <point x="168" y="549"/>
      <point x="190" y="574"/>
      <point x="198" y="574" type="qcurve"/>
      <point x="211" y="574" type="line"/>
      <point x="233" y="590"/>
      <point x="265" y="590" type="qcurve"/>
      <point x="296" y="590"/>
      <point x="320" y="574" type="qcurve"/>
      <point x="369" y="542"/>
      <point x="369" y="463" type="qcurve"/>
      <point x="369" y="410"/>
      <point x="337" y="370" type="qcurve"/>
      <point x="302" y="326"/>
    </contour>
  </outline>
</glyph>
<glyph name="psmallmod" format="2">
  <advance width="500" height="1000"/>
  <unicode hex="1D56"/>
  <outline>
    <contour>
      <point x="246" y="367" type="qcurve"/>
      <point x="272" y="367"/>
      <point x="327" y="427"/>
      <point x="327" y="476" type="qcurve"/>
      <point x="327" y="548"/>
      <point x="277" y="548" type="qcurve"/>
      <point x="262" y="548"/>
      <point x="226" y="527"/>
      <point x="196" y="483"/>
      <point x="193" y="444" type="qcurve"/>
      <point x="192" y="408" type="line"/>
      <point x="219" y="367"/>
    </contour>
    <contour>
      <point x="185" y="249" type="qcurve"/>
      <point x="170" y="249"/>
      <point x="147" y="258"/>
      <point x="147" y="269" type="qcurve"/>
      <point x="148" y="313" type="line"/>
      <point x="148" y="551"/>
      <point x="146" y="576" type="qcurve"/>
      <point x="146" y="588"/>
      <point x="157" y="588" type="qcurve"/>
      <point x="171" y="588"/>
      <point x="195" y="579"/>
      <point x="195" y="568" type="qcurve"/>
      <point x="195" y="541" type="line"/>
      <point x="206" y="566"/>
      <point x="252" y="590"/>
      <point x="281" y="590" type="qcurve"/>
      <point x="321" y="590"/>
      <point x="373" y="533"/>
      <point x="373" y="485" type="qcurve"/>
      <point x="373" y="436"/>
      <point x="340" y="366"/>
      <point x="283" y="326"/>
      <point x="247" y="326" type="qcurve"/>
      <point x="229" y="326"/>
      <point x="193" y="354" type="qcurve"/>
      <point x="193" y="313" type="line"/>
      <point x="195" y="260" type="line"/>
      <point x="195" y="249"/>
    </contour>
  </outline>
</glyph>
<glyph name="usmallmod" format="2">
  <advance width="500" height="1000"/>
  <unicode hex="1D58"/>
  <outline>
    <contour>
      <point x="225" y="326" type="qcurve"/>
      <point x="144" y="326"/>
      <point x="144" y="524"/>
      <point x="142" y="577" type="qcurve"/>
      <point x="142" y="587"/>
      <point x="156" y="587" type="qcurve"/>
      <point x="166" y="587"/>
      <point x="189" y="578"/>
      <point x="189" y="568" type="qcurve"/>
      <point x="188" y="524" type="line"/>
      <point x="188" y="427" type="line"/>
      <point x="188" y="400"/>
      <point x="207" y="366"/>
      <point x="224" y="366" type="qcurve"/>
      <point x="242" y="366"/>
      <point x="281" y="397"/>
      <point x="311" y="458"/>
      <point x="311" y="511" type="qcurve"/>
      <point x="311" y="577" type="line"/>
      <point x="311" y="587"/>
      <point x="325" y="587" type="qcurve"/>
      <point x="336" y="587"/>
      <point x="358" y="579"/>
      <point x="358" y="569" type="qcurve"/>
      <point x="358" y="567" type="line"/>
      <point x="352" y="531"/>
      <point x="352" y="460" type="qcurve"/>
      <point x="352" y="390"/>
      <point x="371" y="359" type="qcurve"/>
      <point x="371" y="356"/>
      <point x="371" y="347"/>
      <point x="356" y="328"/>
      <point x="345" y="328" type="qcurve"/>
      <point x="324" y="328"/>
      <point x="317" y="397" type="qcurve"/>
      <point x="304" y="362"/>
      <point x="256" y="326"/>
    </contour>
  </outline>
</glyph>
<glyph name="rinferior" format="2">
  <advance width="500" height="1000"/>
  <unicode hex="1D63"/>
  <outline>
    <contour>
      <point x="216" y="2" type="qcurve"/>
      <point x="206" y="2"/>
      <point x="184" y="10"/>
      <point x="184" y="21" type="qcurve"/>
      <point x="185" y="65" type="line"/>
      <point x="185" y="195" type="line"/>
      <point x="183" y="249" type="line"/>
      <point x="183" y="259"/>
      <point x="197" y="259" type="qcurve"/>
      <point x="207" y="259"/>
      <point x="230" y="250"/>
      <point x="230" y="227" type="qcurve"/>
      <point x="255" y="260"/>
      <point x="291" y="260" type="qcurve"/>
      <point x="312" y="260"/>
      <point x="339" y="250"/>
      <point x="359" y="234"/>
      <point x="359" y="224" type="qcurve"/>
      <point x="359" y="216"/>
      <point x="344" y="194"/>
      <point x="337" y="194" type="qcurve"/>
      <point x="329" y="194"/>
      <point x="321" y="209"/>
      <point x="301" y="217"/>
      <point x="295" y="217" type="qcurve"/>
      <point x="275" y="217"/>
      <point x="259" y="205" type="qcurve"/>
      <point x="234" y="188"/>
      <point x="230" y="145" type="qcurve"/>
      <point x="228" y="126"/>
      <point x="228" y="65" type="qcurve"/>
      <point x="230" y="12" type="line"/>
      <point x="230" y="2"/>
    </contour>
  </outline>
</glyph>
<glyph name="uinferior" format="2">
  <advance width="500" height="1000"/>
  <unicode hex="1D64"/>
  <outline>
    <contour>
      <point x="225" y="-2" type="qcurve"/>
      <point x="144" y="-2"/>
      <point x="144" y="196"/>
      <point x="142" y="249" type="qcurve"/>
      <point x="142" y="259"/>
      <point x="156" y="259" type="qcurve"/>
      <point x="166" y="259"/>
      <point x="189" y="250"/>
      <point x="189" y="240" type="qcurve"/>
      <point x="188" y="196" type="line"/>
      <point x="188" y="99" type="line"/>
      <point x="188" y="72"/>
      <point x="207" y="38"/>
      <point x="224" y="38" type="qcurve"/>
      <point x="242" y="38"/>
      <point x="281" y="69"/>
      <point x="311" y="130"/>
      <point x="311" y="183" type="qcurve"/>
      <point x="311" y="249" type="line"/>
      <point x="311" y="259"/>
      <point x="325" y="259" type="qcurve"/>
      <point x="336" y="259"/>
      <point x="358" y="251"/>
      <point x="358" y="241" type="qcurve"/>
      <point x="358" y="239" type="line"/>
      <point x="352" y="203"/>
      <point x="352" y="132" type="qcurve"/>
      <point x="352" y="62"/>
      <point x="371" y="31" type="qcurve"/>
      <point x="371" y="28"/>
      <point x="371" y="19"/>
      <point x="356" y="0"/>
      <point x="345" y="0" type="qcurve"/>
      <point x="324" y="0"/>
      <point x="317" y="54" type="qcurve"/>
      <point x="305" y="34"/>
      <point x="256" y="-2"/>
    </contour>
  </outline>
</glyph>
<glyph name="Vmod" format="2">
  <advance width="500" height="1000"/>
  <unicode hex="2C7D"/>
  <outline>
    <contour>
      <point x="255" y="326" type="qcurve"/>
      <point x="245" y="326"/>
      <point x="225" y="344"/>
      <point x="209" y="389"/>
      <point x="196" y="426" type="qcurve"/>
      <point x="122" y="631"/>
      <point x="96" y="683" type="qcurve"/>
      <point x="96" y="697"/>
      <point x="120" y="697" type="qcurve"/>
      <point x="129" y="697"/>
      <point x="147" y="691"/>
      <point x="149" y="683" type="qcurve"/>
      <point x="152" y="672"/>
      <point x="197" y="557"/>
      <point x="248" y="404" type="qcurve"/>
      <point x="307" y="562"/>
      <point x="353" y="675"/>
      <point x="357" y="692" type="qcurve"/>
      <point x="361" y="700"/>
      <point x="372" y="700" type="qcurve"/>
      <point x="381" y="700"/>
      <point x="405" y="686"/>
      <point x="405" y="676" type="qcurve"/>
      <point x="405" y="673"/>
      <point x="392" y="652"/>
      <point x="387" y="638" type="qcurve"/>
      <point x="283" y="393"/>
      <point x="273" y="342" type="qcurve"/>
      <point x="270" y="326"/>
    </contour>
  </outline>
</glyph>
<glyph name="Fmod" format="2">
  <advance width="500" height="1000"/>
  <unicode hex="A7F3"/>
  <outline>
    <contour>
      <point x="185" y="330" type="qcurve"/>
      <point x="175" y="330"/>
      <point x="152" y="339"/>
      <point x="152" y="349" type="qcurve"/>
      <point x="153" y="394" type="line"/>
      <point x="153" y="509" type="line"/>
      <point x="149" y="511"/>
      <point x="139" y="530"/>
      <point x="139" y="536" type="qcurve"/>
      <point x="139" y="546"/>
      <point x="153" y="547" type="qcurve"/>
      <point x="153" y="657" type="line"/>
      <point x="151" y="682" type="line"/>
      <point x="151" y="694"/>
      <point x="163" y="694" type="qcurve"/>
      <point x="171" y="694"/>
      <point x="189" y="688" type="qcurve"/>
      <point x="324" y="697" type="line"/>
      <point x="367" y="701" type="line"/>
      <point x="376" y="701"/>
      <point x="388" y="680"/>
      <point x="388" y="670" type="qcurve"/>
      <point x="388" y="657"/>
      <point x="377" y="657" type="qcurve"/>
      <point x="325" y="657"/>
      <point x="198" y="649" type="qcurve"/>
      <point x="198" y="547" type="line"/>
      <point x="296" y="553" type="line"/>
      <point x="309" y="554"/>
      <point x="333" y="557"/>
      <point x="340" y="557" type="qcurve"/>
      <point x="349" y="557"/>
      <point x="361" y="536"/>
      <point x="361" y="526" type="qcurve"/>
      <point x="361" y="513"/>
      <point x="349" y="513" type="qcurve"/>
      <point x="298" y="513"/>
      <point x="198" y="508" type="qcurve"/>
      <point x="198" y="393"/>
      <point x="199" y="340" type="qcurve"/>
      <point x="199" y="330"/>
    </contour>
  </outline>
</glyph>
<glyph name="qsmallmod" format="2">
  <advance width="500" height="1000"/>
  <unicode hex="107A5"/>
  <outline>
    <contour>
      <point x="213" y="366" type="qcurve"/>
      <point x="247" y="366"/>
      <point x="310" y="434"/>
      <point x="310" y="478" type="qcurve"/>
      <point x="310" y="522" type="line"/>
      <point x="303" y="525"/>
      <point x="301" y="528" type="qcurve"/>
      <point x="287" y="549"/>
      <point x="257" y="549" type="qcurve"/>
      <point x="243" y="549"/>
      <point x="212" y="530"/>
      <point x="199" y="513" type="qcurve"/>
      <point x="173" y="477"/>
      <point x="173" y="438" type="qcurve"/>
      <point x="173" y="399"/>
      <point x="197" y="366"/>
    </contour>
    <contour>
      <point x="341" y="247" type="qcurve"/>
      <point x="331" y="247"/>
      <point x="309" y="255"/>
      <point x="309" y="266" type="qcurve"/>
      <point x="311" y="310" type="line"/>
      <point x="311" y="388" type="line"/>
      <point x="283" y="326"/>
      <point x="213" y="326" type="qcurve"/>
      <point x="177" y="326"/>
      <point x="129" y="382"/>
      <point x="129" y="433" type="qcurve"/>
      <point x="129" y="494"/>
      <point x="207" y="588"/>
      <point x="259" y="588" type="qcurve"/>
      <point x="283" y="588"/>
      <point x="308" y="572" type="qcurve"/>
      <point x="310" y="587"/>
      <point x="323" y="587" type="qcurve"/>
      <point x="333" y="587"/>
      <point x="355" y="579"/>
      <point x="355" y="568" type="qcurve"/>
      <point x="354" y="524" type="line"/>
      <point x="354" y="310" type="line"/>
      <point x="355" y="257" type="line"/>
      <point x="355" y="247"/>
    </contour>
  </outline>
</glyph>
